<svg width="12" height="12" viewBox="0 0 12 12" fill="none" xmlns="http://www.w3.org/2000/svg">
<path fill-rule="evenodd" clip-rule="evenodd" d="M6 1.09091C3.28878 1.09091 1.09091 3.28878 1.09091 6C1.09091 7.21153 1.52979 8.32056 2.25724 9.17677C2.75711 8.5696 3.51473 8.18182 4.36364 8.18182H7.63636C8.48527 8.18182 9.24289 8.56961 9.74276 9.17677C10.4702 8.32056 10.9091 7.21153 10.9091 6C10.9091 3.28878 8.71122 1.09091 6 1.09091ZM10.0201 10.4541C11.2359 9.35609 12 7.76727 12 6C12 2.68629 9.31371 0 6 0C2.68629 0 0 2.68629 0 6C0 7.76727 0.764069 9.35609 1.97989 10.4541C1.98621 10.4601 1.9927 10.4659 1.99934 10.4716C3.06093 11.4221 4.46297 12 6 12C7.53703 12 8.93907 11.4221 10.0007 10.4716C10.0073 10.4659 10.0138 10.4601 10.0201 10.4541ZM8.94579 9.92738C8.64691 9.52941 8.17122 9.27273 7.63636 9.27273H4.36364C3.82878 9.27273 3.35309 9.52941 3.05421 9.92738C3.87473 10.5438 4.89471 10.9091 6 10.9091C7.10529 10.9091 8.12527 10.5438 8.94579 9.92738ZM6 3C5.09626 3 4.36364 3.73263 4.36364 4.63636C4.36364 5.5401 5.09626 6.27273 6 6.27273C6.90374 6.27273 7.63636 5.5401 7.63636 4.63636C7.63636 3.73263 6.90374 3 6 3ZM3.27273 4.63636C3.27273 3.13013 4.49377 1.90909 6 1.90909C7.50623 1.90909 8.72727 3.13013 8.72727 4.63636C8.72727 6.1426 7.50623 7.36364 6 7.36364C4.49377 7.36364 3.27273 6.14259 3.27273 4.63636Z" fill="#8592A3"/>
</svg>
