<svg width="8" height="6" viewBox="0 0 8 6" fill="none" xmlns="http://www.w3.org/2000/svg">
<g clip-path="url(#clip0_944_1763)">
<path d="M7.77947 1.96263L4.59519 5.16925C4.43485 5.31813 4.22493 5.40215 4.00615 5.40502C3.90087 5.40512 3.79661 5.38441 3.69936 5.34409C3.60211 5.30377 3.51378 5.24463 3.43945 5.17007L0.255997 1.96346C0.136451 1.85673 0.0532183 1.71532 0.0179192 1.559C-0.0173798 1.40268 -0.00298312 1.23923 0.0590993 1.09149C0.119894 0.945009 0.222603 0.819745 0.354333 0.731435C0.486062 0.643124 0.640943 0.595698 0.799534 0.5951H7.19043C7.34983 0.594441 7.5058 0.641314 7.63843 0.72973C7.77105 0.818147 7.87431 0.944099 7.935 1.09149C7.99876 1.23567 8.01802 1.39561 7.99031 1.55081C7.9626 1.70601 7.88919 1.84941 7.77947 1.96263Z" fill="#2F3F56"/>
</g>
<defs>
<clipPath id="clip0_944_1763">
<rect width="8" height="4.80993" fill="white" transform="translate(0 0.595093)"/>
</clipPath>
</defs>
</svg>
