<svg width="133" height="20" viewBox="0 0 133 20" fill="none" xmlns="http://www.w3.org/2000/svg">
<path d="M32.6574 15.2977L30.4237 4.71477C30.1926 3.62058 29.6706 2.62499 28.9145 1.83576C28.2041 1.09411 27.3017 0.545491 26.3043 0.249289C25.3071 -0.0469133 24.2514 -0.0796556 23.2516 0.153727C22.1871 0.40234 21.2064 0.952099 20.4156 1.74286L16.3735 5.78498L12.331 1.74286C11.5402 0.952099 10.5595 0.40234 9.49538 0.153727C8.49523 -0.0796556 7.43949 -0.0469133 6.44237 0.249289C5.44526 0.545491 4.54257 1.09411 3.83215 1.83576C3.07603 2.62499 2.55406 3.62058 2.32334 4.71477L0.0892664 15.2977C-0.0972874 16.1821 0.00969636 17.0601 0.399556 17.8371C0.756673 18.5487 1.32395 19.1301 2.04047 19.5184C2.62678 19.8363 3.26677 20 3.91362 20C4.05715 20 4.20106 19.992 4.34498 19.9756C5.20846 19.8782 6.00264 19.4887 6.64187 18.8498L16.3735 9.1182L26.1048 18.8498C26.744 19.4887 27.5382 19.8782 28.4017 19.9756C28.5456 19.992 28.6895 20 28.833 20C29.4799 20 30.1202 19.8363 30.7065 19.5188C31.4227 19.1304 31.9903 18.5487 32.3471 17.8371C32.7369 17.0601 32.8443 16.1821 32.6574 15.2977ZM4.97507 17.183C4.37962 17.7785 3.64902 17.7096 3.1636 17.4465C2.67818 17.1834 2.22131 16.6085 2.3953 15.7846L4.62938 5.20172C4.90502 3.89546 5.8336 2.88883 7.11321 2.50887C7.45966 2.4057 7.80955 2.35544 8.15448 2.35544C9.08382 2.35544 9.97624 2.72094 10.6646 3.40928L14.7067 7.45178L4.97507 17.183ZM29.583 17.4465C29.0976 17.7096 28.367 17.7785 27.7716 17.183L18.0399 7.45178L20.105 5.38675L22.0821 3.40928C23.0262 2.46547 24.3538 2.12853 25.6334 2.50887C26.913 2.88883 27.8416 3.89546 28.1173 5.20172L30.3513 15.7846C30.5253 16.6085 30.0685 17.1834 29.583 17.4465Z" fill="#314459"/>
<path d="M50.064 12.3376C50.064 14.0958 48.669 15.1131 45.9952 15.1131H40.7351V4.9413H45.7047C48.2476 4.9413 49.5553 6.00199 49.5553 7.5858C49.5553 8.60309 49.0322 9.38776 48.2038 9.82368C49.3372 10.1873 50.064 11.0591 50.064 12.3376ZM43.0747 6.71433V9.11211H45.4142C46.5621 9.11211 47.1869 8.70512 47.1869 7.90599C47.1869 7.10685 46.5621 6.71433 45.4142 6.71433H43.0747ZM47.6955 12.0905C47.6955 11.2331 47.0414 10.8261 45.8208 10.8261H43.0743V13.34H45.8208C47.0414 13.3404 47.6955 12.9624 47.6955 12.0905Z" fill="#314459"/>
<path d="M59.2546 11.5095V15.1131H56.9006V11.4802L52.9628 4.9413H55.4622L58.1794 9.46047L60.8967 4.9413H63.2073L59.2546 11.5095Z" fill="#314459"/>
<path d="M66.6943 6.85938V4.9413H75.5583V6.85938H72.3035V15.1131H69.9495V6.85938H66.6943Z" fill="#314459"/>
<path d="M87.562 13.2239V15.1131H79.6864V4.9413H87.3732V6.83045H82.026V9.03901H86.7484V10.8699H82.026V13.2239H87.562Z" fill="#314459"/>
<path d="M101.735 15.1131L101.721 9.01008L98.7275 14.0379H97.6668L94.688 9.14105V15.1134H92.4794V4.94168H94.4265L98.2337 11.2628L101.983 4.94168H103.915L103.944 15.1134L101.735 15.1131Z" fill="#314459"/>
<path d="M116.047 12.9334H111.324L110.423 15.1131H108.011L112.545 4.9413H114.87L119.418 15.1131H116.948L116.047 12.9334ZM115.306 11.1463L113.693 7.25191L112.079 11.1463H115.306Z" fill="#314459"/>
<path d="M129.801 9.86747H131.952V13.9941C130.833 14.837 129.293 15.2874 127.84 15.2874C124.643 15.2874 122.289 13.0933 122.289 10.0274C122.289 6.96141 124.643 4.76731 127.883 4.76731C129.671 4.76731 131.153 5.37761 132.141 6.52549L130.63 7.92045C129.888 7.13579 129.031 6.77258 128 6.77258C126.023 6.77258 124.672 8.09482 124.672 10.0274C124.672 11.931 126.024 13.2822 127.971 13.2822C128.61 13.2822 129.206 13.166 129.802 12.8462L129.801 9.86747Z" fill="#314459"/>
<path d="M20.105 5.38675L18.0399 7.45178L16.3735 5.78498L18.4385 3.71994L20.105 5.38675Z" fill="white"/>
<path d="M14.7067 7.45178L12.6412 9.51648L14.3079 11.1831L16.3735 9.1182L14.7067 7.45178Z" fill="white"/>
</svg>
