<svg xmlns="http://www.w3.org/2000/svg" width="48.014" height="32" viewBox="0 0 48.014 32"><g transform="translate(-102 54)"><path d="M13.62,33.4A3.68,3.68,0,0,1,11,32.32L1.08,22.4a3.69,3.69,0,0,1,0-5.22L11,7.25a3.8,3.8,0,0,1,5.23,0l2.4,2.4a1.5,1.5,0,1,1-2.13,2.12l-2.39-2.4a.73.73,0,0,0-.49-.2.7.7,0,0,0-.49.2L3.2,19.3a.7.7,0,0,0-.2.49.72.72,0,0,0,.2.49l9.93,9.92a.66.66,0,0,0,.49.2.68.68,0,0,0,.49-.2l8.73-8.73A1.513,1.513,0,1,1,25,23.59l-8.73,8.73a3.67,3.67,0,0,1-2.65,1.08Z" transform="translate(102.002 -55.4)" fill="#314459"/><path d="M34.18,33.4a3.47,3.47,0,0,1-2.49-1L21.53,22.21a3.52,3.52,0,0,1,0-5L31.69,7.07a3.6,3.6,0,0,1,5,0L39.2,9.58a1.5,1.5,0,0,1-2.12,2.12L34.56,9.19A.54.54,0,0,0,34.18,9a.5.5,0,0,0-.37.16L23.65,19.34a.54.54,0,0,0,0,.75L33.81,30.25a.53.53,0,0,0,.37.15.56.56,0,0,0,.38-.15l9-9H42.31a1.5,1.5,0,0,1,0-3h3.57a2,2,0,0,1,1.45,3.5L36.68,32.37a3.49,3.49,0,0,1-2.5,1.03Z" transform="translate(102.002 -55.4)" fill="#314459"/><g transform="translate(1.118 -0.609)"><circle cx="1.65" cy="1.65" r="1.65" transform="translate(133.483 -40.391)" fill="#e9e948"/><circle cx="1.65" cy="1.65" r="1.65" transform="translate(133.483 -33.146)" fill="#48e98c"/></g><g transform="translate(1.344 -0.609)"><circle cx="1.65" cy="1.65" r="1.65" transform="translate(136.783 -36.769)" fill="#e94848"/><circle cx="1.65" cy="1.65" r="1.65" transform="translate(129.732 -36.769)" fill="#2a8de9"/></g><path d="M17.45,18.29H15.16V16a1.5,1.5,0,0,0-3,0v2.29H9.87a1.5,1.5,0,0,0,0,3h2.29v2.29a1.5,1.5,0,0,0,3,0V21.29h2.29a1.5,1.5,0,0,0,0-3Z" transform="translate(102.002 -54.888)" fill="#314459"/><path d="M18.5,3h9.4a1.5,1.5,0,1,0,0-3H18.5a3.24,3.24,0,1,0,0,6.47h2.68a1.05,1.05,0,0,1,1,.69H21a1.5,1.5,0,0,0,0,3h5.41a1.5,1.5,0,0,0,0-3h-1.2a4.07,4.07,0,0,0-4-3.69H18.5a.23.23,0,0,1-.24-.23A.24.24,0,0,1,18.5,3Z" transform="translate(102.002 -53.995)" fill="#314459"/></g></svg>