<svg width="130" height="15" viewBox="0 0 130 15" fill="none" xmlns="http://www.w3.org/2000/svg">
<path d="M7.542 14.252C9.864 14.252 11.736 13.406 12.96 11.876L10.692 9.824C9.9 10.778 8.928 11.3 7.722 11.3C5.652 11.3 4.212 9.86 4.212 7.7C4.212 5.54 5.652 4.1 7.722 4.1C8.928 4.1 9.9 4.622 10.692 5.576L12.96 3.524C11.736 1.994 9.864 1.148 7.542 1.148C3.546 1.148 0.612 3.866 0.612 7.7C0.612 11.534 3.546 14.252 7.542 14.252ZM18.9842 14.162C22.2062 14.162 24.4922 12.056 24.4922 9.104C24.4922 6.17 22.2062 4.082 18.9842 4.082C15.7982 4.082 13.4762 6.17 13.4762 9.104C13.4762 12.056 15.7982 14.162 18.9842 14.162ZM18.9842 11.444C17.8322 11.444 16.9322 10.598 16.9322 9.104C16.9322 7.628 17.8322 6.8 18.9842 6.8C20.1542 6.8 21.0362 7.628 21.0362 9.104C21.0362 10.598 20.1542 11.444 18.9842 11.444ZM33.0245 0.643999V5.09C32.3765 4.406 31.4585 4.082 30.3245 4.082C27.6605 4.082 25.5185 6.008 25.5185 9.104C25.5185 12.218 27.6605 14.162 30.3245 14.162C31.5845 14.162 32.5385 13.802 33.1865 13.028V14H36.4445V0.643999H33.0245ZM31.0445 11.444C29.8745 11.444 28.9925 10.598 28.9925 9.104C28.9925 7.628 29.8745 6.8 31.0445 6.8C32.1965 6.8 33.0785 7.628 33.0785 9.104C33.0785 10.598 32.1965 11.444 31.0445 11.444ZM48.6169 9.14C48.6169 5.918 46.2769 4.082 43.3969 4.082C40.3189 4.082 38.0329 6.17 38.0329 9.104C38.0329 12.02 40.2829 14.162 43.7569 14.162C45.6109 14.162 46.9789 13.622 47.9149 12.578L46.1149 10.706C45.4489 11.282 44.8189 11.552 43.8649 11.552C42.6049 11.552 41.7589 10.976 41.4709 9.986H48.5629C48.5809 9.716 48.6169 9.392 48.6169 9.14ZM43.4149 6.512C44.4769 6.512 45.2329 7.16 45.4129 8.186H41.4169C41.6149 7.16 42.3529 6.512 43.4149 6.512ZM60.028 14L56.302 8.996L59.902 4.244H56.284L54.484 6.71L52.756 4.244H48.904L52.504 9.122L48.796 14H52.504L54.376 11.444L56.122 14H60.028ZM62.5146 14.162C63.6846 14.162 64.5666 13.316 64.5666 12.128C64.5666 10.904 63.6846 10.112 62.5146 10.112C61.3626 10.112 60.4626 10.904 60.4626 12.128C60.4626 13.316 61.3626 14.162 62.5146 14.162ZM74.4247 10.886C73.7947 11.174 73.1647 11.3 72.4987 11.3C70.3747 11.3 68.9347 9.824 68.9347 7.7C68.9347 5.522 70.3747 4.1 72.5347 4.1C73.7407 4.1 74.7307 4.55 75.5947 5.504L77.8627 3.452C76.6207 1.958 74.7127 1.148 72.3547 1.148C68.2687 1.148 65.3347 3.866 65.3347 7.7C65.3347 11.534 68.2687 14.252 72.2827 14.252C74.1187 14.252 76.1167 13.694 77.5747 12.65V7.43H74.4247V10.886ZM83.8302 4.082C82.3002 4.082 80.6442 4.478 79.5282 5.216L80.6802 7.538C81.3462 7.016 82.3902 6.692 83.3262 6.692C84.6762 6.692 85.3422 7.25 85.3962 8.24H83.4522C80.4282 8.24 79.1142 9.356 79.1142 11.156C79.1142 12.848 80.4102 14.162 82.7502 14.162C84.1722 14.162 85.1442 13.676 85.6302 12.74V14H88.8162V8.582C88.8162 5.486 86.9982 4.082 83.8302 4.082ZM83.7042 12.002C82.8942 12.002 82.4262 11.588 82.4262 11.012C82.4262 10.418 82.8222 10.022 83.9202 10.022H85.3962V10.868C85.1262 11.642 84.4602 12.002 83.7042 12.002ZM103.683 4.082C102.279 4.082 101.073 4.64 100.299 5.612C99.615 4.568 98.481 4.082 97.149 4.082C95.997 4.082 94.971 4.478 94.233 5.27V4.244H90.975V14H94.395V9.158C94.395 7.646 95.115 6.98 96.123 6.98C97.041 6.98 97.599 7.574 97.599 8.978V14H101.019V9.158C101.019 7.646 101.739 6.98 102.729 6.98C103.629 6.98 104.205 7.574 104.205 8.978V14H107.625V8.42C107.625 5.396 105.951 4.082 103.683 4.082ZM119.896 9.14C119.896 5.918 117.556 4.082 114.676 4.082C111.598 4.082 109.312 6.17 109.312 9.104C109.312 12.02 111.562 14.162 115.036 14.162C116.89 14.162 118.258 13.622 119.194 12.578L117.394 10.706C116.728 11.282 116.098 11.552 115.144 11.552C113.884 11.552 113.038 10.976 112.75 9.986H119.842C119.86 9.716 119.896 9.392 119.896 9.14ZM114.694 6.512C115.756 6.512 116.512 7.16 116.692 8.186H112.696C112.894 7.16 113.632 6.512 114.694 6.512ZM125.019 14.162C128.187 14.162 129.843 12.758 129.843 10.958C129.843 7.088 124.101 8.546 124.101 7.196C124.101 6.836 124.515 6.512 125.667 6.512C126.531 6.512 127.503 6.692 128.475 7.232L129.501 4.91C128.529 4.37 127.017 4.082 125.649 4.082C122.589 4.082 120.897 5.486 120.897 7.322C120.897 11.228 126.657 9.734 126.657 11.048C126.657 11.462 126.279 11.714 125.127 11.714C123.939 11.714 122.625 11.372 121.725 10.814L120.699 13.154C121.653 13.748 123.363 14.162 125.019 14.162Z" fill="#314459"/>
</svg>