<svg width="143" height="24" viewBox="0 0 143 24" fill="none" xmlns="http://www.w3.org/2000/svg">
<g clip-path="url(#clip0_515_129)">
<path d="M10.2162 24C9.85135 24.0016 9.48985 23.9308 9.15257 23.7917C8.81528 23.6527 8.50891 23.4482 8.25116 23.19L0.811164 15.75C0.554004 15.493 0.350004 15.1878 0.210821 14.852C0.0716381 14.5161 0 14.1561 0 13.7925C0 13.4289 0.0716381 13.0689 0.210821 12.733C0.350004 12.3972 0.554004 12.092 0.811164 11.835L8.25116 4.3875C8.78066 3.8853 9.48264 3.60535 10.2124 3.60535C10.9422 3.60535 11.6442 3.8853 12.1737 4.3875L13.9737 6.1875C14.0781 6.29239 14.1608 6.41682 14.2171 6.55368C14.2734 6.69055 14.3022 6.83716 14.3019 6.98515C14.3015 7.13315 14.272 7.27962 14.2151 7.41622C14.1581 7.55281 14.0748 7.67685 13.9699 7.78125C13.865 7.88565 13.7406 7.96837 13.6037 8.02468C13.4669 8.08099 13.3203 8.1098 13.1723 8.10945C13.0243 8.1091 12.8778 8.07961 12.7412 8.02265C12.6046 7.9657 12.4806 7.88239 12.3762 7.7775L10.5837 5.9775C10.4842 5.88329 10.3531 5.82977 10.2162 5.8275C10.0788 5.82748 9.94681 5.88133 9.84866 5.9775L2.40116 13.425C2.305 13.5231 2.25114 13.6551 2.25116 13.7925C2.2527 13.9296 2.30632 14.061 2.40116 14.16L9.84866 21.6C9.89625 21.649 9.95347 21.6876 10.0167 21.7134C10.08 21.7393 10.1479 21.7517 10.2162 21.75C10.2843 21.7508 10.352 21.738 10.4151 21.7122C10.4782 21.6865 10.5355 21.6483 10.5837 21.6L17.1312 15.0525C17.342 14.8377 17.6296 14.7154 17.9306 14.7126C18.0796 14.7112 18.2274 14.7392 18.3657 14.7949C18.5039 14.8507 18.6298 14.9331 18.7362 15.0375C18.8425 15.1419 18.9273 15.2662 18.9856 15.4034C19.0439 15.5406 19.0747 15.6879 19.0761 15.8369C19.0775 15.9859 19.0495 16.1338 18.9937 16.272C18.938 16.4102 18.8556 16.5361 18.7512 16.6425L12.2037 23.19C11.9435 23.4512 11.6335 23.6575 11.2921 23.7967C10.9507 23.9358 10.5848 24.005 10.2162 24Z" fill="#314459"/>
<path d="M25.6362 24C25.2907 24.0052 24.9476 23.9416 24.627 23.8128C24.3063 23.684 24.0146 23.4927 23.7687 23.25L16.1487 15.6075C15.901 15.3621 15.7045 15.07 15.5703 14.7482C15.4362 14.4264 15.3671 14.0812 15.3671 13.7325C15.3671 13.3838 15.4362 13.0386 15.5703 12.7168C15.7045 12.395 15.901 12.1029 16.1487 11.8575L23.7687 4.2525C24.272 3.76674 24.9442 3.49527 25.6437 3.49527C26.3431 3.49527 27.0153 3.76674 27.5187 4.2525L29.4012 6.135C29.5999 6.34826 29.7081 6.63033 29.7029 6.92178C29.6978 7.21324 29.5797 7.49131 29.3736 7.69743C29.1675 7.90355 28.8894 8.02162 28.5979 8.02676C28.3065 8.03191 28.0244 7.92372 27.8112 7.725L25.9212 5.8425C25.8858 5.80071 25.8422 5.76654 25.7933 5.74204C25.7443 5.71755 25.6908 5.70325 25.6362 5.7C25.5841 5.69965 25.5326 5.71014 25.4848 5.73079C25.437 5.75145 25.3941 5.78183 25.3587 5.82L17.7387 13.455C17.6658 13.5305 17.6251 13.6313 17.6251 13.7363C17.6251 13.8412 17.6658 13.942 17.7387 14.0175L25.3587 21.6375C25.433 21.7097 25.5325 21.7501 25.6362 21.75C25.7419 21.7497 25.8437 21.7096 25.9212 21.6375L32.6712 14.8875H31.7337C31.4353 14.8875 31.1491 14.769 30.9382 14.558C30.7272 14.347 30.6087 14.0609 30.6087 13.7625C30.6087 13.4641 30.7272 13.178 30.9382 12.967C31.1491 12.756 31.4353 12.6375 31.7337 12.6375H34.4112C34.724 12.6168 35.0355 12.6947 35.3019 12.8601C35.5682 13.0256 35.776 13.2704 35.896 13.5601C36.016 13.8498 36.0422 14.1698 35.971 14.4752C35.8997 14.7805 35.7345 15.0559 35.4987 15.2625L27.5112 23.2275C27.2657 23.4745 26.9735 23.6701 26.6515 23.8027C26.3296 23.9354 25.9844 24.0024 25.6362 24Z" fill="#314459"/>
<path d="M25.6879 12.225C26.3714 12.225 26.9254 11.671 26.9254 10.9875C26.9254 10.304 26.3714 9.75 25.6879 9.75C25.0045 9.75 24.4504 10.304 24.4504 10.9875C24.4504 11.671 25.0045 12.225 25.6879 12.225Z" fill="#E9E948"/>
<path d="M25.6879 17.6587C26.3714 17.6587 26.9254 17.1047 26.9254 16.4212C26.9254 15.7378 26.3714 15.1837 25.6879 15.1837C25.0045 15.1837 24.4504 15.7378 24.4504 16.4212C24.4504 17.1047 25.0045 17.6587 25.6879 17.6587Z" fill="#48E98C"/>
<path d="M28.3324 14.9415C29.0159 14.9415 29.5699 14.3875 29.5699 13.704C29.5699 13.0205 29.0159 12.4665 28.3324 12.4665C27.649 12.4665 27.0949 13.0205 27.0949 13.704C27.0949 14.3875 27.649 14.9415 28.3324 14.9415Z" fill="#E94848"/>
<path d="M23.0442 14.9415C23.7276 14.9415 24.2817 14.3874 24.2817 13.704C24.2817 13.0205 23.7276 12.4665 23.0442 12.4665C22.3607 12.4665 21.8067 13.0205 21.8067 13.704C21.8067 14.3874 22.3607 14.9415 23.0442 14.9415Z" fill="#2A8DE9"/>
<path d="M13.0887 13.0515H11.3712V11.334C11.3712 11.0356 11.2526 10.7495 11.0417 10.5385C10.8307 10.3275 10.5445 10.209 10.2462 10.209C9.94779 10.209 9.66165 10.3275 9.45067 10.5385C9.23969 10.7495 9.12116 11.0356 9.12116 11.334V13.0515H7.40366C7.10529 13.0515 6.81915 13.17 6.60817 13.381C6.39719 13.592 6.27866 13.8781 6.27866 14.1765C6.27866 14.4749 6.39719 14.761 6.60817 14.972C6.81915 15.183 7.10529 15.3015 7.40366 15.3015H9.12116V17.019C9.12116 17.3174 9.23969 17.6035 9.45067 17.8145C9.66165 18.0255 9.94779 18.144 10.2462 18.144C10.5445 18.144 10.8307 18.0255 11.0417 17.8145C11.2526 17.6035 11.3712 17.3174 11.3712 17.019V15.3015H13.0887C13.387 15.3015 13.6732 15.183 13.8842 14.972C14.0951 14.761 14.2137 14.4749 14.2137 14.1765C14.2137 13.8781 14.0951 13.592 13.8842 13.381C13.6732 13.17 13.387 13.0515 13.0887 13.0515Z" fill="#314459"/>
<path d="M13.8762 2.25375H20.9262C21.2245 2.25375 21.5107 2.13522 21.7217 1.92425C21.9326 1.71327 22.0512 1.42712 22.0512 1.12875C22.0512 0.830382 21.9326 0.544233 21.7217 0.333255C21.5107 0.122277 21.2245 0.00375016 20.9262 0.00375016H13.8762C13.5462 -0.0146026 13.216 0.0345429 12.9056 0.148181C12.5953 0.26182 12.3114 0.437563 12.0713 0.664664C11.8313 0.891765 11.64 1.16545 11.5093 1.46899C11.3786 1.77252 11.3112 2.09952 11.3112 2.43C11.3112 2.76048 11.3786 3.08748 11.5093 3.39102C11.64 3.69455 11.8313 3.96824 12.0713 4.19534C12.3114 4.42244 12.5953 4.59818 12.9056 4.71182C13.216 4.82546 13.5462 4.8746 13.8762 4.85625H15.8862C16.0494 4.85413 16.2092 4.9028 16.3436 4.99551C16.478 5.08822 16.5802 5.22039 16.6362 5.37375H15.7512C15.4528 5.37375 15.1666 5.49228 14.9557 5.70326C14.7447 5.91423 14.6262 6.20038 14.6262 6.49875C14.6262 6.79712 14.7447 7.08327 14.9557 7.29425C15.1666 7.50522 15.4528 7.62375 15.7512 7.62375H19.8087C20.107 7.62375 20.3932 7.50522 20.6042 7.29425C20.8151 7.08327 20.9337 6.79712 20.9337 6.49875C20.9337 6.20038 20.8151 5.91423 20.6042 5.70326C20.3932 5.49228 20.107 5.37375 19.8087 5.37375H18.9087C18.8384 4.62352 18.4931 3.92579 17.9392 3.41487C17.3854 2.90394 16.6621 2.61592 15.9087 2.60625H13.8762C13.8529 2.60726 13.8296 2.60355 13.8078 2.59534C13.786 2.58712 13.7661 2.57458 13.7493 2.55846C13.7325 2.54234 13.7191 2.52298 13.71 2.50154C13.7008 2.48011 13.6961 2.45705 13.6962 2.43375C13.6962 2.41011 13.7008 2.38671 13.7099 2.36487C13.7189 2.34303 13.7322 2.32319 13.7489 2.30647C13.7656 2.28976 13.7854 2.2765 13.8073 2.26745C13.8291 2.25841 13.8525 2.25375 13.8762 2.25375Z" fill="#314459"/>
<path d="M46.7666 18.176C45.5506 18.176 44.5106 17.936 43.6466 17.456C42.7826 16.976 42.1159 16.304 41.6466 15.44C41.1879 14.5653 40.9586 13.536 40.9586 12.352C40.9586 11.4667 41.0866 10.672 41.3426 9.968C41.6093 9.25333 41.9933 8.64533 42.4946 8.144C42.9959 7.632 43.6039 7.23733 44.3186 6.96C45.0439 6.68267 45.8599 6.544 46.7666 6.544C47.2999 6.544 47.8386 6.61333 48.3826 6.752C48.9373 6.88 49.4173 7.06667 49.8226 7.312C50.0893 7.46133 50.2706 7.648 50.3666 7.872C50.4626 8.096 50.4893 8.32 50.4466 8.544C50.4146 8.768 50.3239 8.96 50.1746 9.12C50.0359 9.28 49.8599 9.38133 49.6466 9.424C49.4333 9.46667 49.1933 9.41867 48.9266 9.28C48.6066 9.088 48.2706 8.94933 47.9186 8.864C47.5666 8.77867 47.2093 8.736 46.8466 8.736C46.1319 8.736 45.5293 8.88 45.0386 9.168C44.5586 9.44533 44.1959 9.85067 43.9506 10.384C43.7053 10.9173 43.5826 11.5733 43.5826 12.352C43.5826 13.12 43.7053 13.776 43.9506 14.32C44.1959 14.864 44.5586 15.28 45.0386 15.568C45.5293 15.8453 46.1319 15.984 46.8466 15.984C47.1879 15.984 47.5346 15.9413 47.8866 15.856C48.2493 15.7707 48.5959 15.6373 48.9266 15.456C49.2039 15.3173 49.4493 15.2693 49.6626 15.312C49.8866 15.344 50.0679 15.44 50.2066 15.6C50.3559 15.7493 50.4466 15.9307 50.4786 16.144C50.5213 16.3573 50.4999 16.5707 50.4146 16.784C50.3293 16.9973 50.1693 17.1787 49.9346 17.328C49.5399 17.5947 49.0546 17.8027 48.4786 17.952C47.9026 18.1013 47.3319 18.176 46.7666 18.176Z" fill="#314459"/>
<path d="M55.2376 18.176C54.3949 18.176 53.6589 18.0107 53.0296 17.68C52.4109 17.3493 51.9309 16.8747 51.5896 16.256C51.2483 15.6373 51.0776 14.9067 51.0776 14.064C51.0776 13.4347 51.1736 12.8693 51.3656 12.368C51.5576 11.8667 51.8349 11.44 52.1976 11.088C52.5709 10.7253 53.0136 10.4533 53.5256 10.272C54.0376 10.08 54.6083 9.984 55.2376 9.984C56.0803 9.984 56.8109 10.1493 57.4296 10.48C58.0589 10.8107 58.5443 11.28 58.8856 11.888C59.2376 12.496 59.4136 13.2213 59.4136 14.064C59.4136 14.704 59.3123 15.2747 59.1096 15.776C58.9176 16.2773 58.6403 16.7093 58.2776 17.072C57.9149 17.4347 57.4723 17.712 56.9496 17.904C56.4376 18.0853 55.8669 18.176 55.2376 18.176ZM55.2376 16.368C55.5896 16.368 55.8936 16.2827 56.1496 16.112C56.4056 15.9413 56.6083 15.6907 56.7576 15.36C56.9069 15.0187 56.9816 14.5867 56.9816 14.064C56.9816 13.2853 56.8216 12.7147 56.5016 12.352C56.1816 11.9787 55.7603 11.792 55.2376 11.792C54.8963 11.792 54.5923 11.872 54.3256 12.032C54.0696 12.192 53.8669 12.4427 53.7176 12.784C53.5789 13.1147 53.5096 13.5413 53.5096 14.064C53.5096 14.8427 53.6696 15.424 53.9896 15.808C54.3096 16.1813 54.7256 16.368 55.2376 16.368Z" fill="#314459"/>
<path d="M63.9395 18.176C63.2568 18.176 62.6541 18.0107 62.1315 17.68C61.6195 17.3493 61.2195 16.8747 60.9315 16.256C60.6435 15.6373 60.4995 14.9067 60.4995 14.064C60.4995 13.2213 60.6435 12.496 60.9315 11.888C61.2195 11.28 61.6195 10.8107 62.1315 10.48C62.6541 10.1493 63.2568 9.984 63.9395 9.984C64.5581 9.984 65.1021 10.1333 65.5715 10.432C66.0515 10.7307 66.3768 11.12 66.5475 11.6H66.3715V7.808C66.3715 7.40267 66.4728 7.09867 66.6755 6.896C66.8781 6.68267 67.1768 6.576 67.5715 6.576C67.9555 6.576 68.2541 6.68267 68.4675 6.896C68.6808 7.09867 68.7875 7.40267 68.7875 7.808V16.912C68.7875 17.3067 68.6808 17.6107 68.4675 17.824C68.2648 18.0373 67.9715 18.144 67.5875 18.144C67.2035 18.144 66.9048 18.0373 66.6915 17.824C66.4888 17.6107 66.3875 17.3067 66.3875 16.912V15.824L66.5635 16.448C66.4141 16.9707 66.0941 17.392 65.6035 17.712C65.1235 18.0213 64.5688 18.176 63.9395 18.176ZM64.6595 16.368C65.0115 16.368 65.3155 16.2827 65.5715 16.112C65.8275 15.9413 66.0301 15.6907 66.1795 15.36C66.3288 15.0187 66.4035 14.5867 66.4035 14.064C66.4035 13.2853 66.2435 12.7147 65.9235 12.352C65.6035 11.9787 65.1821 11.792 64.6595 11.792C64.3181 11.792 64.0141 11.872 63.7475 12.032C63.4915 12.192 63.2888 12.4427 63.1395 12.784C63.0008 13.1147 62.9315 13.5413 62.9315 14.064C62.9315 14.8427 63.0915 15.424 63.4115 15.808C63.7315 16.1813 64.1475 16.368 64.6595 16.368Z" fill="#314459"/>
<path d="M74.7291 18.176C73.8011 18.176 73.0011 18.0107 72.3291 17.68C71.6678 17.3387 71.1558 16.864 70.7931 16.256C70.4411 15.6373 70.2651 14.912 70.2651 14.08C70.2651 13.2693 70.4358 12.56 70.7771 11.952C71.1184 11.3333 71.5931 10.8533 72.2011 10.512C72.8198 10.16 73.5184 9.984 74.2971 9.984C74.8624 9.984 75.3744 10.08 75.8331 10.272C76.2918 10.4533 76.6864 10.72 77.0171 11.072C77.3478 11.4133 77.5984 11.8347 77.7691 12.336C77.9398 12.8267 78.0251 13.376 78.0251 13.984C78.0251 14.1867 77.9611 14.3413 77.8331 14.448C77.7051 14.544 77.5184 14.592 77.2731 14.592H72.2491V13.344H76.2811L76.0251 13.568C76.0251 13.1307 75.9611 12.768 75.8331 12.48C75.7051 12.1813 75.5184 11.9573 75.2731 11.808C75.0384 11.6587 74.7451 11.584 74.3931 11.584C73.9984 11.584 73.6624 11.6747 73.3851 11.856C73.1078 12.0373 72.8944 12.2987 72.7451 12.64C72.5958 12.9813 72.5211 13.392 72.5211 13.872V14C72.5211 14.8107 72.7078 15.408 73.0811 15.792C73.4651 16.176 74.0304 16.368 74.7771 16.368C75.0331 16.368 75.3264 16.336 75.6571 16.272C75.9878 16.208 76.2971 16.1067 76.5851 15.968C76.8304 15.8507 77.0491 15.8133 77.2411 15.856C77.4331 15.888 77.5824 15.9733 77.6891 16.112C77.7958 16.2507 77.8544 16.4107 77.8651 16.592C77.8864 16.7733 77.8491 16.9547 77.7531 17.136C77.6571 17.3067 77.4971 17.4507 77.2731 17.568C76.9104 17.7707 76.4998 17.92 76.0411 18.016C75.5931 18.1227 75.1558 18.176 74.7291 18.176Z" fill="#314459"/>
<path d="M80.2311 18.112C79.9324 18.112 79.6924 18.032 79.5111 17.872C79.3298 17.7013 79.2338 17.488 79.2231 17.232C79.2231 16.976 79.3298 16.7147 79.5431 16.448L82.0231 13.408V14.496L79.7191 11.68C79.4951 11.4027 79.3884 11.136 79.3991 10.88C79.4098 10.624 79.5058 10.416 79.6871 10.256C79.8684 10.096 80.1084 10.016 80.4071 10.016C80.6951 10.016 80.9351 10.064 81.1271 10.16C81.3191 10.256 81.5004 10.416 81.6711 10.64L83.3831 12.832H82.5351L84.2471 10.64C84.4284 10.416 84.6151 10.256 84.8071 10.16C84.9991 10.064 85.2338 10.016 85.5111 10.016C85.8098 10.016 86.0498 10.1013 86.2311 10.272C86.4124 10.432 86.5031 10.64 86.5031 10.896C86.5138 11.152 86.4071 11.4133 86.1831 11.68L83.8791 14.496V13.408L86.3751 16.448C86.5991 16.704 86.7058 16.96 86.6951 17.216C86.6844 17.472 86.5831 17.6853 86.3911 17.856C86.2098 18.0267 85.9698 18.112 85.6711 18.112C85.3831 18.112 85.1431 18.064 84.9511 17.968C84.7698 17.8613 84.5884 17.7013 84.4071 17.488L82.5351 15.104H83.3511L81.4791 17.488C81.3084 17.6907 81.1271 17.8453 80.9351 17.952C80.7538 18.0587 80.5191 18.112 80.2311 18.112Z" fill="#314459"/>
<path d="M89.7702 18.08C89.3436 18.08 89.0022 17.952 88.7462 17.696C88.5009 17.44 88.3782 17.1093 88.3782 16.704C88.3782 16.3093 88.5009 15.9893 88.7462 15.744C89.0022 15.488 89.3436 15.36 89.7702 15.36C90.1969 15.36 90.5276 15.488 90.7622 15.744C91.0076 15.9893 91.1302 16.3093 91.1302 16.704C91.1302 17.1093 91.0076 17.44 90.7622 17.696C90.5276 17.952 90.1969 18.08 89.7702 18.08Z" fill="#314459"/>
<path d="M97.9255 18.176C96.6561 18.176 95.5788 17.936 94.6935 17.456C93.8188 16.976 93.1521 16.304 92.6935 15.44C92.2348 14.576 92.0055 13.5627 92.0055 12.4C92.0055 11.504 92.1388 10.6987 92.4055 9.984C92.6828 9.25867 93.0775 8.64533 93.5895 8.144C94.1121 7.632 94.7415 7.23733 95.4775 6.96C96.2241 6.68267 97.0668 6.544 98.0055 6.544C98.5815 6.544 99.1575 6.608 99.7335 6.736C100.309 6.864 100.864 7.07733 101.397 7.376C101.621 7.504 101.771 7.66933 101.845 7.872C101.931 8.064 101.952 8.272 101.909 8.496C101.877 8.70933 101.792 8.90133 101.653 9.072C101.525 9.232 101.355 9.33867 101.141 9.392C100.939 9.43467 100.704 9.392 100.437 9.264C100.085 9.072 99.7121 8.93333 99.3175 8.848C98.9228 8.752 98.4908 8.704 98.0215 8.704C97.2641 8.704 96.6295 8.848 96.1175 9.136C95.6055 9.41333 95.2215 9.82933 94.9655 10.384C94.7201 10.928 94.5975 11.6 94.5975 12.4C94.5975 13.6053 94.8855 14.5173 95.4615 15.136C96.0481 15.7547 96.9121 16.064 98.0535 16.064C98.4375 16.064 98.8321 16.0267 99.2375 15.952C99.6428 15.8773 100.043 15.7707 100.437 15.632L99.9735 16.64V13.568H98.5335C98.2135 13.568 97.9681 13.488 97.7975 13.328C97.6268 13.168 97.5415 12.9493 97.5415 12.672C97.5415 12.384 97.6268 12.1653 97.7975 12.016C97.9681 11.856 98.2135 11.776 98.5335 11.776H101.045C101.365 11.776 101.605 11.8613 101.765 12.032C101.936 12.2027 102.021 12.448 102.021 12.768V16.48C102.021 16.7573 101.968 16.992 101.861 17.184C101.755 17.376 101.573 17.5147 101.317 17.6C100.837 17.7707 100.299 17.9093 99.7015 18.016C99.1041 18.1227 98.5121 18.176 97.9255 18.176Z" fill="#314459"/>
<path d="M106.664 18.176C106.088 18.176 105.571 18.064 105.112 17.84C104.654 17.616 104.296 17.312 104.04 16.928C103.784 16.544 103.656 16.112 103.656 15.632C103.656 15.056 103.806 14.6027 104.104 14.272C104.403 13.9307 104.888 13.6907 105.56 13.552C106.232 13.4027 107.123 13.328 108.232 13.328H109.08V14.576H108.248C107.704 14.576 107.262 14.608 106.92 14.672C106.59 14.7253 106.35 14.8213 106.2 14.96C106.062 15.0987 105.992 15.2907 105.992 15.536C105.992 15.8347 106.094 16.08 106.296 16.272C106.51 16.464 106.814 16.56 107.208 16.56C107.518 16.56 107.79 16.4907 108.024 16.352C108.27 16.2027 108.462 16.0053 108.6 15.76C108.739 15.504 108.808 15.216 108.808 14.896V13.056C108.808 12.5867 108.702 12.256 108.488 12.064C108.275 11.8613 107.912 11.76 107.4 11.76C107.112 11.76 106.798 11.7973 106.456 11.872C106.126 11.936 105.758 12.048 105.352 12.208C105.118 12.3147 104.91 12.3413 104.728 12.288C104.547 12.224 104.408 12.1173 104.312 11.968C104.216 11.808 104.168 11.6373 104.168 11.456C104.168 11.264 104.222 11.0827 104.328 10.912C104.435 10.7307 104.611 10.5973 104.856 10.512C105.358 10.3093 105.827 10.1707 106.264 10.096C106.712 10.0213 107.123 9.984 107.496 9.984C108.318 9.984 108.99 10.1067 109.512 10.352C110.046 10.5867 110.446 10.9547 110.712 11.456C110.979 11.9467 111.112 12.5813 111.112 13.36V16.912C111.112 17.3067 111.016 17.6107 110.824 17.824C110.632 18.0373 110.355 18.144 109.992 18.144C109.63 18.144 109.347 18.0373 109.144 17.824C108.952 17.6107 108.856 17.3067 108.856 16.912V16.32L108.968 16.416C108.904 16.7787 108.766 17.0933 108.552 17.36C108.35 17.616 108.088 17.8187 107.768 17.968C107.448 18.1067 107.08 18.176 106.664 18.176Z" fill="#314459"/>
<path d="M114.163 18.144C113.768 18.144 113.464 18.0373 113.251 17.824C113.048 17.6107 112.947 17.3067 112.947 16.912V11.232C112.947 10.8373 113.048 10.5387 113.251 10.336C113.464 10.1227 113.757 10.016 114.131 10.016C114.515 10.016 114.808 10.1227 115.011 10.336C115.213 10.5387 115.315 10.8373 115.315 11.232V12.256L115.139 11.616C115.352 11.1253 115.683 10.7307 116.131 10.432C116.579 10.1333 117.107 9.984 117.715 9.984C118.323 9.984 118.829 10.128 119.235 10.416C119.64 10.704 119.928 11.1467 120.099 11.744H119.875C120.109 11.2 120.467 10.7733 120.947 10.464C121.437 10.144 121.997 9.984 122.627 9.984C123.235 9.984 123.731 10.1067 124.115 10.352C124.509 10.5867 124.803 10.9493 124.995 11.44C125.187 11.92 125.283 12.5333 125.283 13.28V16.912C125.283 17.3067 125.176 17.6107 124.963 17.824C124.76 18.0373 124.467 18.144 124.083 18.144C123.688 18.144 123.384 18.0373 123.171 17.824C122.968 17.6107 122.867 17.3067 122.867 16.912V13.36C122.867 12.8373 122.781 12.4587 122.611 12.224C122.451 11.9787 122.173 11.856 121.779 11.856C121.32 11.856 120.963 12.016 120.707 12.336C120.451 12.656 120.323 13.1093 120.323 13.696V16.912C120.323 17.3067 120.216 17.6107 120.003 17.824C119.8 18.0373 119.507 18.144 119.123 18.144C118.739 18.144 118.44 18.0373 118.227 17.824C118.013 17.6107 117.907 17.3067 117.907 16.912V13.36C117.907 12.8373 117.821 12.4587 117.651 12.224C117.491 11.9787 117.213 11.856 116.819 11.856C116.36 11.856 116.003 12.016 115.747 12.336C115.491 12.656 115.363 13.1093 115.363 13.696V16.912C115.363 17.7333 114.963 18.144 114.163 18.144Z" fill="#314459"/>
<path d="M131.213 18.176C130.285 18.176 129.485 18.0107 128.813 17.68C128.152 17.3387 127.64 16.864 127.277 16.256C126.925 15.6373 126.749 14.912 126.749 14.08C126.749 13.2693 126.92 12.56 127.261 11.952C127.603 11.3333 128.077 10.8533 128.685 10.512C129.304 10.16 130.003 9.984 130.781 9.984C131.347 9.984 131.859 10.08 132.317 10.272C132.776 10.4533 133.171 10.72 133.501 11.072C133.832 11.4133 134.083 11.8347 134.253 12.336C134.424 12.8267 134.509 13.376 134.509 13.984C134.509 14.1867 134.445 14.3413 134.317 14.448C134.189 14.544 134.003 14.592 133.757 14.592H128.733V13.344H132.765L132.509 13.568C132.509 13.1307 132.445 12.768 132.317 12.48C132.189 12.1813 132.003 11.9573 131.757 11.808C131.523 11.6587 131.229 11.584 130.877 11.584C130.483 11.584 130.147 11.6747 129.869 11.856C129.592 12.0373 129.379 12.2987 129.229 12.64C129.08 12.9813 129.005 13.392 129.005 13.872V14C129.005 14.8107 129.192 15.408 129.565 15.792C129.949 16.176 130.515 16.368 131.261 16.368C131.517 16.368 131.811 16.336 132.141 16.272C132.472 16.208 132.781 16.1067 133.069 15.968C133.315 15.8507 133.533 15.8133 133.725 15.856C133.917 15.888 134.067 15.9733 134.173 16.112C134.28 16.2507 134.339 16.4107 134.349 16.592C134.371 16.7733 134.333 16.9547 134.237 17.136C134.141 17.3067 133.981 17.4507 133.757 17.568C133.395 17.7707 132.984 17.92 132.525 18.016C132.077 18.1227 131.64 18.176 131.213 18.176Z" fill="#314459"/>
<path d="M138.923 18.176C138.453 18.176 137.968 18.1333 137.467 18.048C136.976 17.9627 136.528 17.8187 136.123 17.616C135.909 17.5093 135.755 17.376 135.659 17.216C135.573 17.0453 135.536 16.8747 135.547 16.704C135.557 16.5333 135.611 16.3787 135.707 16.24C135.813 16.1013 135.947 16.0107 136.107 15.968C136.277 15.9147 136.464 15.9307 136.667 16.016C137.104 16.1973 137.504 16.3253 137.867 16.4C138.229 16.4747 138.587 16.512 138.939 16.512C139.397 16.512 139.728 16.4427 139.931 16.304C140.144 16.1547 140.251 15.9627 140.251 15.728C140.251 15.5147 140.181 15.3547 140.043 15.248C139.904 15.1413 139.701 15.0667 139.435 15.024L137.755 14.72C137.093 14.6027 136.581 14.3627 136.219 14C135.867 13.6267 135.691 13.152 135.691 12.576C135.691 12.0427 135.84 11.584 136.139 11.2C136.437 10.8053 136.848 10.5067 137.371 10.304C137.904 10.0907 138.507 9.984 139.179 9.984C139.659 9.984 140.101 10.0267 140.507 10.112C140.912 10.1973 141.301 10.336 141.675 10.528C141.867 10.624 142 10.752 142.075 10.912C142.16 11.072 142.187 11.2373 142.155 11.408C142.133 11.5787 142.069 11.7333 141.963 11.872C141.856 12.0107 141.717 12.1013 141.547 12.144C141.387 12.1867 141.2 12.1653 140.987 12.08C140.645 11.92 140.331 11.808 140.043 11.744C139.755 11.6693 139.477 11.632 139.211 11.632C138.731 11.632 138.384 11.712 138.171 11.872C137.957 12.0213 137.851 12.2133 137.851 12.448C137.851 12.6293 137.909 12.784 138.027 12.912C138.155 13.0293 138.347 13.1093 138.603 13.152L140.283 13.456C140.976 13.5733 141.504 13.808 141.867 14.16C142.229 14.5013 142.411 14.9707 142.411 15.568C142.411 16.3787 142.091 17.0187 141.451 17.488C140.821 17.9467 139.979 18.176 138.923 18.176Z" fill="#314459"/>
</g>
<defs>
<clipPath id="clip0_515_129">
<rect width="142.411" height="24.0003" fill="white"/>
</clipPath>
</defs>
</svg>
