<svg width="3472" height="526" viewBox="0 0 3472 526" fill="none" xmlns="http://www.w3.org/2000/svg">
<path d="M858.09 402.15L799.42 124.18C793.35 95.4401 779.64 69.2901 759.78 48.5601C741.12 29.0801 717.42 14.6701 691.22 6.89007C665.03 -0.889932 637.3 -1.74994 611.04 4.38006C583.08 10.9101 557.32 25.35 536.55 46.12L430.38 152.29L386.6 108.52L324.2 46.12C303.43 25.35 277.67 10.9101 249.72 4.38006C223.45 -1.74994 195.72 -0.889932 169.53 6.89007C143.34 14.6701 119.63 29.0801 100.97 48.5601C81.11 69.2901 67.4 95.4401 61.34 124.18L2.65997 402.15C-2.24003 425.38 0.569993 448.44 10.81 468.85C20.19 487.54 35.09 502.81 53.91 513.01C69.31 521.36 86.12 525.66 103.11 525.66C106.88 525.66 110.66 525.45 114.44 525.02C137.12 522.46 157.98 512.23 174.77 495.45L376.14 294.08L430.38 239.84L460.28 269.74L685.98 495.45C702.77 512.23 723.63 522.46 746.31 525.02C750.09 525.45 753.87 525.66 757.64 525.66C774.63 525.66 791.45 521.36 806.85 513.02C825.66 502.82 840.57 487.54 849.94 468.85C860.18 448.44 863 425.38 858.09 402.15ZM332.36 250.3L130.99 451.67C115.35 467.31 96.16 465.5 83.41 458.59C70.66 451.68 58.66 436.58 63.23 414.94L121.91 136.97C129.15 102.66 153.54 76.22 187.15 66.24C196.25 63.53 205.44 62.21 214.5 62.21C238.91 62.21 262.35 71.8101 280.43 89.8901L344.24 153.7L386.6 196.07L332.36 250.3ZM777.34 458.59C764.59 465.5 745.4 467.31 729.76 451.67L510.93 232.85L474.15 196.07L528.39 141.83V141.82L580.32 89.8901C605.12 65.1001 639.99 56.25 673.6 66.24C707.21 76.22 731.6 102.66 738.84 136.97L797.52 414.94C802.09 436.58 790.09 451.68 777.34 458.59Z" fill="#282828"/>
<path d="M1315.29 324.4C1315.29 370.58 1278.65 397.3 1208.42 397.3H1070.26V130.13H1200.79C1267.58 130.13 1301.93 157.99 1301.93 199.59C1301.93 226.31 1288.19 246.92 1266.43 258.37C1296.2 267.92 1315.29 290.82 1315.29 324.4ZM1131.71 176.7V239.68H1193.16C1223.31 239.68 1239.72 228.99 1239.72 208C1239.72 187.01 1223.31 176.7 1193.16 176.7H1131.71ZM1253.08 317.91C1253.08 295.39 1235.9 284.7 1203.84 284.7H1131.7V350.73H1203.84C1235.9 350.74 1253.08 340.81 1253.08 317.91Z" fill="#282828"/>
<path d="M1556.69 302.65V397.3H1494.86V301.88L1391.43 130.13H1457.08L1528.45 248.83L1599.82 130.13H1660.51L1556.69 302.65Z" fill="#282828"/>
<path d="M1837.59 180.51H1752.1V130.13H1984.92V180.51H1899.43V397.3H1837.6V180.51H1837.59Z" fill="#282828"/>
<path d="M2300.21 347.68V397.3H2093.35V130.13H2295.25V179.75H2154.8V237.76H2278.84V285.85H2154.8V347.68H2300.21Z" fill="#282828"/>
<path d="M2672.48 397.3L2672.1 237L2593.48 369.06H2565.62L2487.38 240.44V397.31H2429.37V130.14H2480.51L2580.51 296.17L2678.98 130.14H2729.74L2730.5 397.31H2672.48V397.3Z" fill="#282828"/>
<path d="M3048.38 340.05H2924.34L2900.68 397.3H2837.32L2956.4 130.13H3017.47L3136.93 397.3H3072.05L3048.38 340.05ZM3028.92 293.11L2986.55 190.82L2944.18 293.11H3028.92Z" fill="#282828"/>
<path d="M3409.66 259.52H3466.15V367.91C3436.76 390.05 3396.3 401.88 3358.14 401.88C3274.17 401.88 3212.34 344.25 3212.34 263.72C3212.34 183.19 3274.17 125.56 3359.28 125.56C3406.23 125.56 3445.16 141.59 3471.11 171.74L3431.42 208.38C3411.95 187.77 3389.44 178.23 3362.34 178.23C3310.43 178.23 3274.94 212.96 3274.94 263.72C3274.94 313.72 3310.44 349.21 3361.58 349.21C3378.37 349.21 3394.02 346.16 3409.67 337.76V259.52H3409.66Z" fill="#282828"/>
<path d="M528.39 141.82V141.83L474.15 196.07L430.38 152.29L484.62 98.0498L528.39 141.82Z" fill="#565656"/>
<path d="M386.583 196.066L332.348 250.301L376.125 294.077L430.36 239.843L386.583 196.066Z" fill="#D3D3D3"/>
</svg>
